<?xml version="1.0" standalone="no"?>
<!DOCTYPE svg PUBLIC "-//W3C//DTD SVG 20010904//EN"
 "http://www.w3.org/TR/2001/REC-SVG-20010904/DTD/svg10.dtd">
<svg version="1.0" xmlns="http://www.w3.org/2000/svg"
 width="350.000000pt" height="350.000000pt" viewBox="0 0 350.000000 350.000000"
 preserveAspectRatio="xMidYMid meet">
<metadata>
Created by potrace 1.11, written by Peter Selinger 2001-2013
</metadata>
<g transform="translate(0.000000,350.000000) scale(0.100000,-0.100000)"
fill="#000000" stroke="none">
<path d="M1475 3461 c-275 -50 -511 -147 -725 -299 -122 -86 -316 -280 -402
-402 -132 -187 -232 -414 -285 -645 -20 -90 -25 -147 -30 -310 -5 -176 -3
-216 17 -330 43 -255 151 -517 298 -725 86 -122 280 -316 402 -402 208 -147
471 -255 725 -298 113 -19 155 -21 325 -17 216 6 310 21 504 84 138 44 332
143 456 231 122 86 316 280 402 402 134 189 236 424 290 670 20 92 22 133 22
335 0 252 -10 327 -75 534 -41 130 -154 355 -236 471 -87 122 -282 316 -403
402 -188 133 -424 236 -665 288 -144 32 -476 37 -620 11z"/>
</g>
</svg>
